<svg xmlns="http://www.w3.org/2000/svg" viewBox="0 0 206.46 206.4"><title>&#x8D44;&#x6E90; 7</title><g fill-rule="evenodd"><path d="M176.24 176.18a102.91 102.91 0 0 1-76.44 30.16c-8.75-.29-10.94-10.72-6.79-17 17.92-27.07 75.72-28.09 101.23-60a56.23 56.23 0 0 0 10.57-21.88c.56-2.21 1.26-4.67 1.63-6.42a102.92 102.92 0 0 1-30.2 75.1z" fill="#03b2de" opacity=".48"/><path d="M176.18 176.24a102.92 102.92 0 0 0 30.16-76.44c-.29-8.76-10.73-10.94-17-6.79C168.21 107 163 145.3 146.5 173.56c-9.44 16.21-25.92 31.19-45.38 32.82a102.78 102.78 0 0 0 75.06-30.14z" fill="#8e03ff" opacity=".48"/><path d="M30.22 30.28A102.94 102.94 0 0 1 106.66.12c8.77.29 10.94 10.73 6.79 17-17.91 27.07-75.72 28.09-101.23 60A56.23 56.23 0 0 0 1.65 99c-.56 2.17-1.25 4.63-1.65 6.38a102.93 102.93 0 0 1 30.2-75.1z" fill="#00deb9" opacity=".48"/><path d="M30.28 30.22A102.94 102.94 0 0 0 .12 106.66c.29 8.77 10.73 10.94 17 6.79 27.07-17.91 28.09-75.72 60-101.23A56.23 56.23 0 0 1 99 1.65c2.21-.56 4.67-1.25 6.42-1.63a102.93 102.93 0 0 0-75.1 30.2z" fill="#1d88e1" opacity=".48"/><path d="M44 187.8c-32.11-55.4 181.83-82.46 145-142a103.71 103.71 0 0 0-26.5-27.07c25.84 44.36-100 69.18-138.89 106.54C12.3 136.12 10.9 151.63 20 164.34a103.82 103.82 0 0 0 24 23.46z" fill="#8e03ff" opacity=".48"/><path d="M187.75 44c-51.41-29.78-77.2 148.08-127.43 150-4.47.18-9.6-2-14.56-5a103.71 103.71 0 0 1-27.07-26.5C71.5 193.28 96.63 9 148.17 12.54c4.69.32 10.6 3.57 16.11 7.51a104.32 104.32 0 0 1 23.47 24z" fill="#1d88e1" opacity=".48"/></g></svg>